# xmcd
#
# Track frame offsets:
#	150
#	16258
#	32388
#	44947
#	68621
#	81728
#	99358
#	113723
#	128235
#	138264
#	153168
#	165895
#	183682
#	200128
#	213100
#	223888
#	237814
#	251021
#	266944
#	284692
#
# Disc length: 4045 seconds
# Revision: 0
# Processed by: cddbd v1.5.2PL0 Copyright (c) Steve Scherf et al.
# Submitted via: dBpowerAMP V12.0
#
DISCID=2a0fcb14
DTITLE=David John and The Comstock Cowboys - One Last Train
DYEAR=2015
DGENRE=Country
TTITLE0=V and T Railroad Line
TTITLE1=Dark Hollow
TTITLE2=Fireball Mail
TTITLE3=Freight Train Blues
TTITLE4=The Man From Yuma
TTITLE5=One Last Train
TTITLE6=New River Train
TTITLE7=Heartbreak Flyer
TTITLE8=Runaway Train
TTITLE9=Different Train Same  Ol' Blues
TTITLE10=I'm Your Train
TTITLE11=Wabash Cannonball
TTITLE12=Blue Kentucky Rain
TTITLE13=Master's Train
TTITLE14=Southern Lady
TTITLE15=Rocky Mountain Railroad Blues
TTITLE16=Back to Shady Grove
TTITLE17=Midnight Train
TTITLE18=Orange Blossom Special
TTITLE19=I Know You Rider
EXTD=
EXTT0=
EXTT1=
EXTT2=
EXTT3=
EXTT4=
EXTT5=
EXTT6=
EXTT7=
EXTT8=
EXTT9=
EXTT10=
EXTT11=
EXTT12=
EXTT13=
EXTT14=
EXTT15=
EXTT16=
EXTT17=
EXTT18=
EXTT19=
PLAYORDER=
